<svg width="22" height="22" fill="none" xmlns="http://www.w3.org/2000/svg"><defs><clipPath id="a"><path fill="#fff" fill-opacity="0" d="M0 0h22v22H0z"/></clipPath></defs><path d="M0 0h22v22H0z"/><g clip-path="url(#a)"><path d="M11 2.06c-1.77 0-3.5.52-4.97 1.5a8.946 8.946 0 00-3.29 4.01 8.887 8.887 0 00-.51 5.17c.34 1.73 1.2 3.32 2.45 4.57a8.904 8.904 0 004.57 2.45c1.74.35 3.53.17 5.17-.51a8.946 8.946 0 004.01-3.29 8.95 8.95 0 001.5-4.96c0-2.37-.94-4.65-2.62-6.32A8.908 8.908 0 0011 2.06zm.68 16.47v-5.47h2.07c.18 0 .35-.07.48-.2a.697.697 0 000-.98c-.13-.13-.3-.2-.48-.2h-2.07V9.62c0-.36.15-.71.41-.97.25-.26.6-.4.97-.4h1.37c.18 0 .36-.08.49-.21s.2-.3.2-.48-.07-.36-.2-.49a.697.697 0 00-.49-.2h-1.37a2.747 2.747 0 00-2.75 2.75v2.06H8.25a.68.68 0 00-.69.69.68.68 0 00.69.69h2.06v5.47a7.543 7.543 0 01-5.01-2.57 7.546 7.546 0 01.47-10.43 7.554 7.554 0 0110.45 0 7.546 7.546 0 012.33 5.12c.09 1.94-.58 3.85-1.85 5.31a7.588 7.588 0 01-5.02 2.57z" fill="#000"/></g></svg>