<svg width="22" height="22" fill="none" xmlns="http://www.w3.org/2000/svg"><defs><clipPath id="a"><path fill="#fff" fill-opacity="0" d="M0 0h22v22H0z"/></clipPath></defs><path d="M0 0h22v22H0z"/><g clip-path="url(#a)"><path d="M11 6.87c-.82 0-1.62.24-2.3.7-.67.45-1.2 1.09-1.52 1.85a4.12 4.12 0 00.9 4.49 4.12 4.12 0 004.49.9c.76-.32 1.4-.84 1.85-1.52.46-.68.7-1.48.7-2.29A4.133 4.133 0 0011 6.87zm0 6.88c-.55 0-1.08-.17-1.53-.47-.45-.3-.81-.73-1.02-1.23-.2-.51-.26-1.06-.15-1.59a2.736 2.736 0 012.16-2.16c.53-.11 1.08-.05 1.59.15.5.21.93.57 1.23 1.02.3.45.47.98.47 1.53 0 .72-.29 1.42-.81 1.94s-1.22.81-1.94.81zm4.12-11.69H6.87c-1.28 0-2.5.51-3.4 1.41-.9.9-1.41 2.12-1.41 3.4v8.25c0 1.28.51 2.5 1.41 3.4.9.9 2.12 1.41 3.4 1.41h8.25c1.28 0 2.5-.51 3.4-1.41.9-.9 1.41-2.12 1.41-3.4V6.87c0-1.28-.51-2.5-1.41-3.4-.9-.9-2.12-1.41-3.4-1.41zm3.44 13.06c0 .91-.36 1.79-1.01 2.43-.64.65-1.52 1.01-2.43 1.01H6.87c-.91 0-1.79-.36-2.43-1.01a3.412 3.412 0 01-1.01-2.43V6.87c0-.91.36-1.79 1.01-2.43.64-.65 1.52-1.01 2.43-1.01h8.25c.91 0 1.79.36 2.43 1.01.65.64 1.01 1.52 1.01 2.43v8.25zM16.5 6.53c0 .2-.07.4-.18.57a1.03 1.03 0 01-1.06.44c-.2-.04-.38-.14-.53-.28-.14-.15-.24-.33-.28-.53a1.03 1.03 0 011.01-1.23c.28 0 .54.1.73.3.2.19.31.45.31.73z" fill="#000"/></g></svg>