<svg width="22" height="22" fill="none" xmlns="http://www.w3.org/2000/svg"><defs><clipPath id="a"><path fill="#fff" fill-opacity="0" d="M0 0h22v22H0z"/></clipPath></defs><path d="M0 0h22v22H0z"/><g clip-path="url(#a)"><path d="M9.19 14.02H7.73V9.25h1.46v4.77zm-.73-5.38c-.53 0-.8-.24-.8-.73 0-.1.02-.2.06-.29.04-.09.1-.17.17-.23.16-.14.36-.22.57-.21.53 0 .79.24.79.73s-.26.73-.79.73zm6.17 5.38h-1.5v-2.66c0-.69-.24-1.04-.73-1.04-.39 0-.64.2-.76.58-.04.06-.06.19-.06.37v2.75h-1.5v-3.24c0-.73-.01-1.24-.03-1.53h1.28l.09.64c.34-.5.83-.76 1.5-.76.51 0 .92.18 1.24.54.31.35.47.87.47 1.54v2.81zM11 19.25c-4.55 0-8.25-3.71-8.25-8.25 0-4.55 3.7-8.25 8.25-8.25 4.54 0 8.25 3.7 8.25 8.25 0 4.54-3.71 8.25-8.25 8.25zm0-14.67c-3.54 0-6.42 2.88-6.42 6.42 0 3.53 2.88 6.41 6.42 6.41 3.53 0 6.41-2.88 6.41-6.41 0-3.54-2.88-6.42-6.41-6.42z" fill="#000"/></g></svg>