<svg width="22" height="22" fill="none" xmlns="http://www.w3.org/2000/svg"><defs><clipPath id="a"><path fill="#fff" fill-opacity="0" d="M0 0h22v22H0z"/></clipPath></defs><path d="M0 0h22v22H0z"/><g clip-path="url(#a)" stroke="#000" stroke-linejoin="round"><path d="M18.07 3.14c1.73 0 3.14 1.4 3.14 3.14v9.43c0 1.73-1.41 3.14-3.14 3.14H3.92c-1.73 0-3.14-1.41-3.14-3.14V6.28c0-1.74 1.41-3.14 3.14-3.14h14.15z"/><path d="M8.34 8.04c0-.11.02-.22.08-.32.05-.1.13-.18.23-.23.1-.06.21-.08.32-.08.11 0 .22.04.31.1l5.66 3.3c.09.05.17.13.23.23a.65.65 0 010 .62c-.06.1-.14.18-.23.23l-5.66 3.3c-.09.06-.2.09-.31.09a.734.734 0 01-.32-.09.84.84 0 01-.23-.23.722.722 0 01-.08-.32v-6.6z"/></g></svg>